<?xml version="1.0"?>
<svg width="24" height="24" xmlns="http://www.w3.org/2000/svg" xmlns:svg="http://www.w3.org/2000/svg">
 <g class="layer">
  <title>Layer 1</title>
  <g data-name="01 align center" id="_01_align_center">
   <path d="m21,24l-2,0l0,-5.04a2.96,2.96 0 0 0 -2.96,-2.96l-8.08,0a2.96,2.96 0 0 0 -2.96,2.96l0,5.04l-2,0l0,-5.04a4.96,4.96 0 0 1 4.96,-4.96l8.08,0a4.96,4.96 0 0 1 4.96,4.96l0,5.04z" fill="#ffffff" id="svg_1"/>
   <path d="m12,12a6,6 0 1 1 6,-6a6.01,6.01 0 0 1 -6,6zm0,-10a4,4 0 1 0 4,4a4,4 0 0 0 -4,-4z" fill="#ffffff" id="svg_2"/>
  </g>
 </g>
</svg>